HIERARCHY
ROOT Pelvis
{
	OFFSET 0.000000 0.000000 0.000000
	CHANNELS 6 Xposition Yposition Zposition Xrotation Yrotation Zrotation
	JOINT LeftUpLeg_virtual
	{
		OFFSET 0.000000 0.000000 0.000000
		CHANNELS 3 Xrotation Yrotation Zrotation
		JOINT LeftUpLeg
		{
			OFFSET 8.479700 -4.795502 -0.379100
			CHANNELS 3 Xrotation Yrotation Zrotation
			JOINT LeftLeg
			{
				OFFSET 0.024144 -32.555107 0.112900
				CHANNELS 3 Xrotation Yrotation Zrotation
				JOINT LeftFoot
				{
					OFFSET -0.024144 -32.638630 -3.012600
					CHANNELS 3 Xrotation Yrotation Zrotation
					JOINT LeftToeBase
					{
						OFFSET 0.970200 -13.225400 11.864200
						CHANNELS 3 Xrotation Yrotation Zrotation
						End Site
						{
							OFFSET 0 0 0
						}
					}
				}
			}
		}
	}
	JOINT RightUpLeg_virtual
	{
		OFFSET 0.000000 0.000000 0.000000
		CHANNELS 3 Xrotation Yrotation Zrotation
		JOINT RightUpLeg
		{
			OFFSET -8.479700 -4.795502 -0.379100
			CHANNELS 3 Xrotation Yrotation Zrotation
			JOINT RightLeg
			{
				OFFSET -0.023144 -32.555092 0.112900
				CHANNELS 3 Xrotation Yrotation Zrotation
				JOINT RightFoot
				{
					OFFSET 0.023144 -32.638641 -3.012700
					CHANNELS 3 Xrotation Yrotation Zrotation
					JOINT RightToeBase
					{
						OFFSET -0.970200 -13.225400 11.864200
						CHANNELS 3 Xrotation Yrotation Zrotation
						End Site
						{
							OFFSET 0 0 0
						}
					}
				}
			}
		}
	}
	JOINT Hips_virtual
	{
		OFFSET 0.000000 0.000000 0.000000
		CHANNELS 3 Xrotation Yrotation Zrotation
		JOINT Hips
		{
			OFFSET -0.000000 -0.000000 -0.000000
			CHANNELS 3 Xrotation Yrotation Zrotation
			JOINT Spine
			{
				OFFSET 0.000000 7.722000 1.166200
				CHANNELS 3 Xrotation Yrotation Zrotation
				JOINT Spine1
				{
					OFFSET 0.000000 12.024101 0.248800
					CHANNELS 3 Xrotation Yrotation Zrotation
					JOINT Spine2
					{
						OFFSET 0.000000 11.502998 -0.491200
						CHANNELS 3 Xrotation Yrotation Zrotation
						JOINT Neck_virtual
						{
							OFFSET 0.000000 0.000000 0.000000
							CHANNELS 3 Xrotation Yrotation Zrotation
							JOINT Neck
							{
								OFFSET 0.000000 18.430702 -3.123100
								CHANNELS 3 Xrotation Yrotation Zrotation
								JOINT Head
								{
									OFFSET 0.000000 9.051102 1.034000
									CHANNELS 3 Xrotation Yrotation Zrotation
									End Site
									{
										OFFSET 0 0 0
									}
								}
							}
						}
						JOINT LeftShoulder_virtual
						{
							OFFSET 0.000000 0.000000 0.000000
							CHANNELS 3 Xrotation Yrotation Zrotation
							JOINT LeftShoulder
							{
								OFFSET 6.197800 13.665199 -4.064700
								CHANNELS 3 Xrotation Yrotation Zrotation
								JOINT LeftArm
								{
									OFFSET 7.778100 -0.187103 -1.709300
									CHANNELS 3 Xrotation Yrotation Zrotation
									JOINT LeftForeArm
									{
										OFFSET 22.049376 0.000000 0.000000
										CHANNELS 3 Xrotation Yrotation Zrotation
										JOINT LeftHand
										{
											OFFSET 23.009392 0.000000 0.000000
											CHANNELS 3 Xrotation Yrotation Zrotation
											End Site
											{
												OFFSET 0 0 0
											}
										}
									}
								}
							}
						}
						JOINT RightShoulder_virtual
						{
							OFFSET 0.000000 0.000000 0.000000
							CHANNELS 3 Xrotation Yrotation Zrotation
							JOINT RightShoulder
							{
								OFFSET -6.197800 13.665199 -4.064700
								CHANNELS 3 Xrotation Yrotation Zrotation
								JOINT RightArm
								{
									OFFSET -7.778100 -0.187103 -1.709300
									CHANNELS 3 Xrotation Yrotation Zrotation
									JOINT RightForeArm
									{
										OFFSET -22.049376 0.000000 0.000000
										CHANNELS 3 Xrotation Yrotation Zrotation
										JOINT RightHand
										{
											OFFSET -23.009392 0.000000 0.000000
											CHANNELS 3 Xrotation Yrotation Zrotation
											End Site
											{
												OFFSET 0 0 0
											}
										}
									}
								}
							}
						}
					}
				}
			}
		}
	}
}
MOTION
Frames: 13
Frame Time: 0.03333333
0.255731 77.143608 1.231251 0.000000 0.000000 0.000000 22.669372 -0.164190 -7.174851 -56.331377 -0.170668 -1.757616 71.561039 -3.154323 3.262798 5.282744 1.907383 5.479308 0.000000 0.000000 0.000000 22.669372 -0.164190 -7.174851 -36.070065 -12.198730 0.323747 36.984962 -3.610417 2.712311 -22.487582 -1.355840 4.016584 0.000000 0.000000 0.000000 22.669372 -0.164190 -7.174851 0.000001 0.000000 0.000000 8.935938 3.132939 0.719969 -0.486219 1.376179 -0.738725 0.000000 0.000000 0.000000 -0.484355 1.393123 -0.752145 -12.183783 0.616444 0.895270 0.000000 0.000000 0.000000 -0.484355 1.393123 -0.752145 0.800072 -1.053362 -19.763347 13.552897 -1.213101 -48.473043 0.000009 -65.396835 0.000011 0.000000 0.000000 0.000000 -0.484355 1.393123 -0.752145 0.203547 7.873815 19.585053 11.893545 -9.449214 48.231630 -0.000001 63.146998 0.000004 0.000000 0.000000 0.000000 
-0.213393 76.912796 2.989132 0.000000 0.000000 0.000000 22.978317 -0.163018 -6.978395 -59.763827 0.658706 -2.213326 71.865147 -4.157073 3.279245 2.741983 2.652118 5.105755 0.000000 0.000000 0.000000 22.978317 -0.163018 -6.978395 -34.727660 -12.274527 0.656020 37.076060 -3.465253 2.610941 -24.308829 -1.397188 3.929267 0.000000 0.000000 0.000000 22.978317 -0.163018 -6.978395 0.000002 0.000000 0.000000 8.710355 3.342252 0.363462 -0.496564 1.450543 -0.731987 0.000000 0.000000 0.000000 -0.476995 1.478102 -0.752147 -12.234348 0.523661 0.936671 0.000000 0.000000 0.000000 -0.476995 1.478102 -0.752147 0.809865 -1.055530 -19.698322 13.400031 -1.470144 -48.429368 0.000030 -65.609295 0.000039 0.000000 0.000000 0.000000 -0.476995 1.478102 -0.752147 0.179716 8.056690 19.469470 11.883965 -9.750501 48.141024 0.000002 64.191470 0.000024 0.000000 0.000000 0.000000 
-0.680628 76.689766 4.740208 0.000000 0.000000 0.000000 23.290586 -0.157791 -6.774918 -62.924101 1.522843 -2.627783 71.662741 -5.236598 3.292403 0.421256 3.480226 4.786627 0.000000 0.000000 0.000000 23.290586 -0.157791 -6.774918 -33.238419 -12.495487 1.031339 36.870416 -3.249572 2.373738 -26.013686 -1.420603 3.837829 0.000000 0.000000 0.000000 23.290586 -0.157791 -6.774918 0.000001 0.000000 0.000000 8.486867 3.545981 0.001426 -0.507235 1.525119 -0.724557 0.000000 0.000000 0.000000 -0.469546 1.563696 -0.748851 -12.284885 0.430360 0.978019 0.000000 0.000000 0.000000 -0.469546 1.563696 -0.748851 0.829646 -1.055379 -19.576804 13.303901 -1.693186 -48.524348 0.000002 -65.794311 0.000006 0.000000 0.000000 0.000000 -0.469546 1.563696 -0.748851 0.162751 8.201806 19.240260 12.013096 -10.084081 48.107423 -0.000052 65.513235 0.000054 0.000000 0.000000 0.000000 
-1.147168 76.442368 6.489203 0.000000 0.000000 0.000000 23.630725 -0.159670 -6.542845 -65.899550 2.349255 -3.019006 70.947641 -6.347413 3.263943 -1.695684 4.458727 4.464725 0.000000 0.000000 0.000000 23.630725 -0.159670 -6.542845 -31.711486 -12.814743 1.401092 36.531827 -2.954696 2.045059 -27.659397 -1.435445 3.760826 0.000000 0.000000 0.000000 23.630725 -0.159670 -6.542845 0.000000 0.000000 0.000000 8.258675 3.737038 -0.379114 -0.520796 1.601803 -0.710189 0.000000 0.000000 0.000000 -0.460741 1.655481 -0.739871 -12.336257 0.331890 1.018789 0.000000 0.000000 0.000000 -0.460741 1.655481 -0.739871 0.857945 -1.055086 -19.402793 13.266432 -1.833228 -48.691657 0.000018 -65.913839 0.000040 0.000000 0.000000 0.000000 -0.460741 1.655481 -0.739871 0.154743 8.315183 18.934698 12.291666 -10.409289 48.204354 -0.000011 66.924461 0.000011 0.000000 0.000000 0.000000 
-1.615687 76.104477 8.246119 0.000000 0.000000 0.000000 24.050874 -0.190670 -6.234596 -68.862063 3.004339 -3.407924 69.642091 -7.406019 3.113112 -3.610040 5.759282 4.045808 0.000000 0.000000 0.000000 24.050874 -0.190670 -6.234596 -30.367479 -13.185872 1.671740 36.396821 -2.550543 1.668219 -29.401000 -1.454015 3.713056 0.000000 0.000000 0.000000 24.050874 -0.190670 -6.234596 -0.000001 0.000000 0.000000 8.011490 3.899237 -0.807133 -0.542831 1.684604 -0.675693 0.000000 0.000000 0.000000 -0.447992 1.765198 -0.714382 -12.390382 0.218418 1.057886 0.000000 0.000000 0.000000 -0.447992 1.765198 -0.714382 0.892448 -1.054613 -19.190871 13.312125 -1.847646 -48.806937 -0.000007 -65.962217 -0.000009 0.000000 0.000000 0.000000 -0.447992 1.765198 -0.714382 0.153488 8.439835 18.609349 12.697671 -10.683097 48.523078 0.000038 68.139415 -0.000050 0.000000 0.000000 0.000000 
-2.092792 75.743332 10.056633 0.000000 0.000000 0.000000 24.526689 -0.248715 -5.872622 -71.538896 3.610681 -3.783793 67.641713 -8.326793 2.923141 -5.218293 7.123723 3.635932 0.000000 0.000000 0.000000 24.526689 -0.248715 -5.872622 -28.944911 -13.559471 1.906759 36.071633 -2.073723 1.292201 -31.047137 -1.473212 3.697488 0.000000 0.000000 0.000000 24.526689 -0.248715 -5.872622 -0.000002 0.000000 0.000000 7.775299 4.042828 -1.254663 -0.568903 1.769347 -0.638626 0.000000 0.000000 0.000000 -0.435510 1.881721 -0.687171 -12.441146 0.101474 1.098715 0.000000 0.000000 0.000000 -0.435510 1.881721 -0.687171 0.929822 -1.053953 -18.961351 13.400397 -1.835211 -48.895866 0.000027 -66.003581 0.000029 0.000000 0.000000 0.000000 -0.435510 1.881721 -0.687171 0.154267 8.583620 18.261955 13.151208 -10.954122 48.933087 -0.000006 69.329241 0.000007 0.000000 0.000000 0.000000 
-2.582224 75.379578 11.939491 0.000000 0.000000 0.000000 25.004964 -0.341553 -5.501457 -73.799852 4.168834 -4.115784 64.898204 -9.063877 2.716813 -6.456912 8.456301 3.254234 0.000000 0.000000 0.000000 25.004964 -0.341553 -5.501457 -27.280805 -13.891602 2.170137 35.380042 -1.547390 0.959789 -32.495100 -1.495057 3.726021 0.000000 0.000000 0.000000 25.004964 -0.341553 -5.501457 0.000001 0.000000 0.000000 7.563646 4.167400 -1.725164 -0.598233 1.854913 -0.604954 0.000000 0.000000 0.000000 -0.424872 2.005181 -0.664212 -12.484875 -0.017777 1.143299 0.000000 0.000000 0.000000 -0.424872 2.005181 -0.664212 0.969111 -1.053110 -18.719996 13.516200 -1.797127 -48.968047 0.000012 -66.033750 0.000015 0.000000 0.000000 0.000000 -0.424872 2.005181 -0.664212 0.157615 8.737059 17.903002 13.636102 -11.213145 49.411528 -0.000009 70.485824 -0.000023 0.000000 0.000000 0.000000 
-3.093877 75.013336 13.960129 0.000000 0.000000 0.000000 25.458984 -0.500863 -5.138920 -75.558087 4.694391 -4.378922 61.468205 -9.564773 2.517616 -7.352933 9.661064 2.912284 0.000000 0.000000 0.000000 25.458984 -0.500863 -5.138920 -25.209757 -14.125740 2.507468 34.156588 -0.963698 0.711452 -33.685735 -1.522930 3.808709 0.000000 0.000000 0.000000 25.458984 -0.500863 -5.138920 0.000000 0.000000 0.000000 7.397806 4.272572 -2.232491 -0.630491 1.941491 -0.566816 0.000000 0.000000 0.000000 -0.418077 2.143485 -0.637356 -12.515521 -0.139403 1.194960 0.000000 0.000000 0.000000 -0.418077 2.143485 -0.637356 1.009359 -1.052064 -18.472585 13.644513 -1.734536 -49.032999 0.000005 -66.048599 0.000017 0.000000 0.000000 0.000000 -0.418077 2.143485 -0.637356 0.164057 8.890710 17.542926 14.136624 -11.451840 49.934676 -0.000005 71.601023 0.000003 0.000000 0.000000 0.000000 
-3.629706 74.620865 16.129824 0.000000 0.000000 0.000000 25.847058 -0.736905 -4.848496 -76.474397 5.431281 -4.082106 58.461003 -9.856396 1.977857 -7.236713 10.190936 3.875191 0.000000 0.000000 0.000000 25.847058 -0.736905 -4.848496 -22.875801 -13.795884 2.913897 32.607917 -0.739401 0.665482 -34.350008 -1.706048 4.282481 0.000000 0.000000 0.000000 25.847058 -0.736905 -4.848496 -0.000001 0.000000 0.000000 7.278116 4.373391 -2.741903 -0.664960 2.028180 -0.527947 0.000000 0.000000 0.000000 -0.415942 2.293456 -0.610944 -12.532829 -0.261060 1.253745 0.000000 0.000000 0.000000 -0.415942 2.293456 -0.610944 1.049658 -1.050840 -18.224943 13.770214 -1.648568 -49.100119 0.000036 -66.043995 0.000040 0.000000 0.000000 0.000000 -0.415942 2.293456 -0.610944 0.173703 9.035026 17.192194 14.637836 -11.663042 50.477892 -0.000008 72.666574 -0.000003 0.000000 0.000000 0.000000 
-4.142164 74.265411 18.355652 0.000000 0.000000 0.000000 26.123500 -1.038891 -4.642032 -76.862769 6.217915 -3.639593 54.635687 -9.839328 1.255468 -6.264010 10.315963 5.339709 0.000000 0.000000 0.000000 26.123500 -1.038891 -4.642032 -20.344741 -13.472383 3.490127 30.848826 -0.842622 0.675317 -34.538436 -1.577826 4.042951 0.000000 0.000000 0.000000 26.123500 -1.038891 -4.642032 0.000000 0.000000 0.000000 7.184904 4.463596 -3.254793 -0.701030 2.114326 -0.489380 0.000000 0.000000 0.000000 -0.418500 2.448753 -0.585382 -12.542772 -0.381901 1.316380 0.000000 0.000000 0.000000 -0.418500 2.448753 -0.585382 1.089039 -1.049483 -17.982845 13.878165 -1.540405 -49.178585 0.000010 -66.015704 -0.000000 0.000000 0.000000 0.000000 -0.418500 2.448753 -0.585382 0.186321 9.160365 16.861290 15.125997 -11.840682 51.016015 -0.000003 73.674348 0.000006 0.000000 0.000000 0.000000 
-4.627569 73.922714 20.625809 0.000000 0.000000 0.000000 26.301457 -1.395470 -4.537588 -76.874715 6.781703 -3.084166 52.229306 -9.802750 0.599570 -6.068656 10.442681 6.695622 0.000000 0.000000 0.000000 26.301457 -1.395470 -4.537588 -17.590604 -13.436188 4.174630 28.821418 -0.826844 0.674551 -34.206038 -1.192294 3.223836 0.000000 0.000000 0.000000 26.301457 -1.395470 -4.537588 -0.000001 0.000000 0.000000 7.134608 4.553784 -3.728729 -0.738056 2.199288 -0.452089 0.000000 0.000000 0.000000 -0.428169 2.606429 -0.561727 -12.542019 -0.493568 1.384177 0.000000 0.000000 0.000000 -0.428169 2.606429 -0.561727 1.126583 -1.048034 -17.752085 13.953171 -1.411137 -49.277230 -0.000003 -65.959656 -0.000014 0.000000 0.000000 0.000000 -0.428169 2.606429 -0.561727 0.200921 9.256939 16.560642 15.588363 -11.980032 51.523167 0.000024 74.616197 0.000006 0.000000 0.000000 0.000000 
-5.057077 73.623199 22.915174 0.000000 0.000000 0.000000 26.354432 -1.804178 -4.525602 -76.627366 7.235993 -2.472298 50.404365 -9.759452 -0.026882 -6.246015 10.563571 8.042696 0.000000 0.000000 0.000000 26.354432 -1.804178 -4.525602 -15.449492 -13.951396 4.504950 28.043420 0.011082 0.764563 -33.070922 -0.951896 2.379023 0.000000 0.000000 0.000000 26.354432 -1.804178 -4.525602 0.000001 0.000000 0.000000 7.191793 4.634865 -4.169597 -0.775327 2.282291 -0.418430 0.000000 0.000000 0.000000 -0.459474 2.765922 -0.542973 -12.516931 -0.578590 1.463624 0.000000 0.000000 0.000000 -0.459474 2.765922 -0.542973 1.161338 -1.046556 -17.538471 13.980010 -1.261843 -49.404725 0.000017 -65.871724 0.000009 0.000000 0.000000 0.000000 -0.459474 2.765922 -0.542973 0.216971 9.315095 16.300726 15.996614 -12.098382 51.969772 0.000008 75.483904 0.000007 0.000000 0.000000 0.000000 
-5.429328 73.380104 25.198109 0.000000 0.000000 0.000000 26.312255 -2.226092 -4.558384 -76.092248 8.003926 -1.757010 48.859236 -9.782857 -0.643163 -9.062780 10.031979 10.229891 0.000000 0.000000 0.000000 26.312255 -2.226092 -4.558384 -14.326084 -14.854309 4.216478 29.111899 1.441285 0.980403 -31.246343 -1.093069 2.354329 0.000000 0.000000 0.000000 26.312255 -2.226092 -4.558384 0.000001 0.000000 0.000000 7.293942 4.690951 -4.594639 -0.812088 2.362464 -0.391801 0.000000 0.000000 0.000000 -0.504746 2.921645 -0.531384 -12.492396 -0.647265 1.548401 0.000000 0.000000 0.000000 -0.504746 2.921645 -0.531384 1.192361 -1.045127 -17.347764 13.943625 -1.093288 -49.569452 0.000005 -65.747688 0.000015 0.000000 0.000000 0.000000 -0.504746 2.921645 -0.531384 0.233618 9.325078 16.092001 16.386505 -12.134973 52.339285 -0.000006 76.269280 -0.000000 0.000000 0.000000 0.000000 
